<?xml version="1.0" encoding="iso-8859-1"?>
<!-- Generator: Adobe Illustrator 16.0.0, SVG Export Plug-In . SVG Version: 6.00 Build 0)  -->
<!DOCTYPE svg PUBLIC "-//W3C//DTD SVG 1.1//EN" "http://www.w3.org/Graphics/SVG/1.1/DTD/svg11.dtd">
<svg version="1.1" id="Capa_1" xmlns="http://www.w3.org/2000/svg" xmlns:xlink="http://www.w3.org/1999/xlink" x="0px" y="0px"
	 width="37.273px" height="37.273px" viewBox="0 0 37.273 37.273" style="enable-background:new 0 0 37.273 37.273;"
	 xml:space="preserve">
<g>
	<path d="M29.643,7.973L27.444,9.41l-6.371-5.219l-1.177,1.436l-6.391-3.526L0,26.358l12.182,6.782l1.327,2.032l0.872-0.569
		l0.062,0.052l0.16-0.195l22.67-14.791L29.643,7.973z M1.36,25.97L13.894,3.456l5.36,2.955L3.479,25.675l5.625,4.605L1.36,25.97z
		 M4.887,25.534l1.298-1.586l3.712,5.688L4.887,25.534z M24.189,25.577c-2.213,1.44-5.176,0.819-6.618-1.392
		c-1.442-2.214-0.82-5.174,1.394-6.617c2.21-1.444,5.173-0.82,6.616,1.39C27.024,21.171,26.401,24.134,24.189,25.577z M7.362,22.514
		L21.215,5.599l5.354,4.383L7.362,22.514z M20.75,19.633l0.896,1.374l0.211-0.124c0.715-0.415,1.262-0.599,1.635-0.554
		s0.736,0.334,1.088,0.877c0.379,0.58,0.516,1.072,0.402,1.479c-0.109,0.403-0.492,0.823-1.15,1.25l-0.189,0.129l0.402,0.615
		l-0.627,0.408l-0.4-0.615l-0.18,0.111c-0.652,0.426-1.186,0.612-1.6,0.563c-0.41-0.05-0.797-0.354-1.16-0.908l-0.119-0.188
		l0.928-0.604l0.062,0.097c0.223,0.337,0.418,0.521,0.59,0.548c0.172,0.029,0.445-0.081,0.82-0.324l0.139-0.085l-0.971-1.489
		c-0.73,0.477-1.299,0.695-1.703,0.659c-0.406-0.034-0.799-0.347-1.179-0.927c-0.366-0.561-0.481-1.037-0.35-1.419
		c0.133-0.382,0.563-0.812,1.291-1.286l-0.349-0.535l0.625-0.408l0.351,0.533c0.694-0.451,1.235-0.665,1.623-0.632
		c0.385,0.031,0.752,0.317,1.104,0.858l0.081,0.123l-0.896,0.586l-0.067-0.094c-0.267-0.408-0.652-0.447-1.162-0.115L20.75,19.633z
		 M20.121,20.036l-0.131,0.092c-0.553,0.359-0.686,0.756-0.398,1.191c0.297,0.455,0.721,0.504,1.269,0.146
		c0.004-0.002,0.053-0.029,0.141-0.081L20.121,20.036z M23.123,23.271l0.137-0.086c0.597-0.391,0.728-0.839,0.394-1.354
		c-0.183-0.278-0.369-0.418-0.562-0.422c-0.19-0.002-0.496,0.133-0.914,0.405L23.123,23.271z"/>
</g>
<g>
</g>
<g>
</g>
<g>
</g>
<g>
</g>
<g>
</g>
<g>
</g>
<g>
</g>
<g>
</g>
<g>
</g>
<g>
</g>
<g>
</g>
<g>
</g>
<g>
</g>
<g>
</g>
<g>
</g>
</svg>
